<?xml version="1.0" standalone="no"?>
<!DOCTYPE svg PUBLIC "-//W3C//DTD SVG 20010904//EN"
 "http://www.w3.org/TR/2001/REC-SVG-20010904/DTD/svg10.dtd">
<svg version="1.0" xmlns="http://www.w3.org/2000/svg"
 width="512.000000pt" height="512.000000pt" viewBox="0 0 512.000000 512.000000"
 preserveAspectRatio="xMidYMid meet">
<metadata>
Created by potrace 1.11, written by Peter Selinger 2001-2013
</metadata>
<g transform="translate(0.000000,512.000000) scale(0.100000,-0.100000)"
fill="#000000" stroke="none">
<path d="M2040 4709 c-111 -8 -195 -17 -230 -24 -14 -3 -41 -8 -60 -11 -67
-11 -256 -63 -340 -94 -127 -46 -273 -119 -396 -196 -129 -80 -105 -63 -229
-166 -384 -317 -640 -740 -740 -1224 -34 -165 -40 -232 -40 -434 1 -242 16
-369 70 -568 41 -147 133 -380 177 -444 10 -14 18 -29 18 -32 0 -13 106 -176
173 -265 85 -114 275 -305 383 -388 278 -211 612 -365 914 -418 211 -38 244
-39 1050 -39 816 1 779 -2 844 60 109 103 75 290 -64 352 -31 14 -130 16 -795
18 -756 2 -825 4 -980 38 -502 107 -940 442 -1168 891 -84 166 -121 267 -157
432 -28 129 -35 197 -35 358 0 294 52 518 178 770 151 303 363 530 672 721
165 101 447 199 641 220 32 3 73 8 89 10 123 14 351 0 515 -31 180 -35 415
-129 586 -236 317 -198 563 -512 678 -864 23 -70 35 -121 77 -331 13 -66 66
-136 124 -163 98 -46 206 -19 269 67 28 40 31 50 29 115 -2 115 -49 336 -102
487 -180 508 -556 927 -1046 1166 -55 27 -102 49 -105 49 -3 1 -22 9 -43 18
-22 9 -58 22 -80 29 -23 6 -46 15 -52 19 -22 16 -263 72 -362 84 -26 4 -59 8
-73 11 -14 2 -79 7 -145 10 -66 3 -127 6 -135 7 -8 1 -58 -1 -110 -4z"/>
<path d="M1486 2763 c-26 -7 -87 -46 -108 -70 -50 -55 -64 -163 -30 -228 39
-77 89 -112 171 -122 155 -18 275 133 224 282 -34 102 -152 165 -257 138z"/>
<path d="M2087 2756 c-92 -34 -147 -118 -140 -216 11 -179 227 -265 356 -142
92 87 90 237 -4 317 -18 15 -44 32 -58 37 -42 17 -113 19 -154 4z"/>
<path d="M2682 2749 c-54 -24 -88 -58 -111 -109 -38 -83 -21 -170 45 -236 50
-50 98 -68 170 -61 122 12 204 111 191 235 -15 141 -167 230 -295 171z"/>
<path d="M4014 2426 c-51 -22 -102 -74 -120 -122 -15 -39 -17 -86 -17 -357 l0
-312 -306 1 c-246 1 -315 -1 -351 -13 -119 -39 -179 -182 -125 -297 23 -48 85
-102 132 -115 23 -7 159 -11 344 -11 l305 0 1 -318 c0 -303 1 -319 21 -357 39
-72 83 -108 147 -121 82 -17 145 0 199 51 68 64 70 73 71 425 l1 315 324 5
c288 4 329 7 358 23 50 27 72 48 93 90 46 88 32 189 -33 256 -65 66 -61 66
-403 68 -170 1 -317 2 -325 2 -13 1 -15 41 -14 303 0 167 -4 319 -9 338 -31
121 -180 195 -293 146z"/>
</g>
</svg>
