<svg width="376" height="107" viewBox="0 0 376 107" fill="none" xmlns="http://www.w3.org/2000/svg">
<g clip-path="url(#clip0)">
<path d="M170.666 43.9372C170.407 43.3342 170.063 42.9034 169.632 42.5588C169.115 42.2142 168.598 42.0419 168.081 42.0419C167.478 41.9558 166.961 42.1281 166.444 42.4727C165.928 42.8173 165.497 43.3342 165.324 43.9372L153.522 72.1949C153.436 72.5395 153.349 72.798 153.349 73.0564C153.349 73.7456 153.522 74.3487 153.952 74.7794C154.383 75.2102 154.986 75.4687 155.848 75.4687C156.365 75.4687 156.882 75.2964 157.312 74.9517C157.743 74.6071 158.088 74.1764 158.346 73.5733L160.758 67.8012H174.887L177.3 73.4872C177.558 74.0902 177.903 74.521 178.333 74.8656C178.764 75.2102 179.281 75.3825 179.884 75.3825C180.573 75.3825 181.176 75.124 181.693 74.6071C182.21 74.0902 182.555 73.401 182.555 72.5395C182.555 72.1949 182.469 71.8503 182.296 71.4195L170.666 43.9372ZM163.085 62.4598L167.823 51.4324L172.561 62.4598H163.085Z" fill="#128EBF"/>
<path d="M189.447 40.405C188.585 40.405 187.982 40.6635 187.379 41.2665C186.862 41.7835 186.518 42.4727 186.518 43.3342V72.5395C186.518 73.401 186.776 74.0041 187.293 74.6071C187.81 75.124 188.499 75.4686 189.275 75.4686C190.05 75.4686 190.739 75.2102 191.342 74.6071C191.859 74.0902 192.204 73.401 192.204 72.5395V43.248C192.204 42.3865 191.945 41.7834 191.428 41.1804C190.911 40.6635 190.308 40.405 189.447 40.405Z" fill="#128EBF"/>
<path d="M210.209 55.7399C210.985 55.7399 211.588 55.4814 212.105 55.0507C212.621 54.5337 212.88 53.9307 212.88 53.2415C212.88 52.4661 212.621 51.8631 212.105 51.3461C211.588 50.8292 210.985 50.5708 210.209 50.5708H206.849V47.5555C206.849 46.7801 206.591 46.0909 206.074 45.4879C205.557 44.9709 204.868 44.6263 204.092 44.6263C203.231 44.6263 202.628 44.8848 202.025 45.4879C201.508 46.0048 201.163 46.694 201.163 47.5555V50.5708H199.01C198.234 50.5708 197.631 50.8292 197.114 51.26C196.597 51.7769 196.339 52.38 196.339 53.0692C196.339 53.8445 196.597 54.4476 197.114 54.9645C197.631 55.4814 198.234 55.7399 199.01 55.7399H201.163V68.7487C201.163 70.2994 201.422 71.5056 201.853 72.3671C202.283 73.2286 202.886 73.9178 203.662 74.3486C204.351 74.7793 205.126 75.0378 205.902 75.1239C206.677 75.2101 207.452 75.2962 208.142 75.2962C209.262 75.2962 210.295 75.0378 211.243 74.4347C212.191 73.8316 212.708 73.1424 212.708 72.2809C212.708 71.5917 212.535 70.9887 212.191 70.5579C211.846 70.1271 211.415 69.9548 210.985 69.9548C210.554 69.9548 210.209 70.041 209.865 70.1271C209.52 70.2994 209.175 70.2994 208.831 70.2994C208.486 70.2994 208.142 70.2133 207.883 70.1271C207.625 70.041 207.366 69.7825 207.194 69.5241C207.022 69.2656 206.935 68.921 206.935 68.4041V55.7399H210.209Z" fill="#128EBF"/>
<path d="M236.83 53.3277C235.71 52.2077 234.418 51.2601 233.04 50.5709C231.575 49.8817 230.11 49.537 228.474 49.537C226.406 49.537 224.424 50.054 222.529 51.1739C220.634 52.2939 219.169 53.7585 218.049 55.7399C216.929 57.7214 216.326 60.1337 216.326 62.9767C216.326 65.3889 216.843 67.5427 217.877 69.5242C218.911 71.4195 220.461 72.9702 222.443 74.0902C224.424 75.2102 226.75 75.7271 229.421 75.7271C230.972 75.7271 232.523 75.4686 233.987 74.9517C235.452 74.4348 236.658 73.8317 237.433 73.1425C238.295 72.4533 238.726 71.6779 238.726 70.8164C238.726 70.2134 238.467 69.6103 238.036 69.1796C237.606 68.7488 237.002 68.4904 236.313 68.4904C235.796 68.4904 235.279 68.6627 234.676 68.9211C234.332 69.0934 233.987 69.3519 233.556 69.6103C233.126 69.8688 232.609 70.1272 231.92 70.2995C231.23 70.4718 230.283 70.558 229.163 70.558C227.87 70.558 226.75 70.2134 225.631 69.6103C224.511 69.0073 223.563 68.0596 222.874 66.9396C222.443 66.2504 222.184 65.4751 222.012 64.6135H237.606C238.381 64.6135 238.984 64.3551 239.587 63.9243C240.19 63.4936 240.449 62.8044 240.449 62.1151C240.449 60.3921 240.104 58.8414 239.501 57.2907C238.812 55.8261 237.95 54.4477 236.83 53.3277ZM223.735 56.4292C224.338 55.8261 225.027 55.3953 225.889 55.1369C226.664 54.8784 227.612 54.7923 228.56 54.7923C229.507 54.7923 230.455 54.9646 231.317 55.3953C232.178 55.8261 232.867 56.4292 233.47 57.1184C234.073 57.8076 234.418 58.6691 234.418 59.5306V59.8752H222.012C222.098 59.5306 222.184 59.0998 222.271 58.7552C222.701 57.8076 223.132 57.0322 223.735 56.4292Z" fill="#128EBF"/>
<path d="M267.845 50.3985C267.328 49.8816 266.639 49.6232 265.777 49.6232C264.916 49.6232 264.312 49.8816 263.709 50.4847C263.193 51.0016 262.934 51.6908 262.934 52.5523C262.676 52.2939 262.331 52.0354 261.986 51.777C261.125 51.1739 260.177 50.657 259.057 50.2262C257.937 49.7955 256.645 49.6232 255.353 49.6232C253.285 49.6232 251.304 50.1401 249.581 51.26C247.858 52.38 246.479 53.9307 245.445 55.9122C244.412 57.8937 243.895 60.1336 243.895 62.7182C243.895 65.3027 244.412 67.5427 245.445 69.5241C246.479 71.5056 247.858 73.0563 249.667 74.1763C251.39 75.2963 253.371 75.8132 255.611 75.8132C256.817 75.8132 257.937 75.6409 258.971 75.2101C260.005 74.7794 260.866 74.3486 261.642 73.7456C262.245 73.3148 262.676 72.884 263.02 72.4533C263.02 73.2286 263.279 73.9179 263.796 74.4348C264.312 74.9517 265.002 75.2963 265.863 75.2963C266.725 75.2963 267.328 75.0378 267.931 74.4348C268.448 73.9179 268.706 73.2286 268.706 72.3671V52.4662C268.62 51.6047 268.362 50.9154 267.845 50.3985ZM262.331 66.7673C261.728 67.9734 260.953 68.9211 259.919 69.6103C258.885 70.2995 257.679 70.6441 256.3 70.6441C254.922 70.6441 253.716 70.2995 252.682 69.6103C251.648 68.9211 250.873 67.9734 250.27 66.7673C249.667 65.5612 249.408 64.2689 249.408 62.7182C249.408 61.1675 249.667 59.8752 250.27 58.6691C250.873 57.4629 251.648 56.5153 252.682 55.8261C253.716 55.1369 254.922 54.7923 256.3 54.7923C257.679 54.7923 258.885 55.1369 259.919 55.8261C260.953 56.5153 261.728 57.4629 262.331 58.6691C262.934 59.8752 263.193 61.2536 263.193 62.7182C263.193 64.1828 262.934 65.5612 262.331 66.7673Z" fill="#128EBF"/>
<path d="M296.619 68.7489C295.93 68.6627 295.327 68.7489 294.638 69.0935C293.862 69.5242 293.001 69.7827 292.139 69.955C291.278 70.1273 290.416 70.2135 289.555 70.2135C288.004 70.2135 286.54 69.955 285.247 69.5242C283.955 69.0935 282.749 68.4043 281.801 67.4566C280.854 66.509 280.078 65.3028 279.475 63.9244C278.958 62.546 278.614 60.823 278.614 58.9276C278.614 57.2908 278.872 55.8262 279.303 54.4478C279.82 53.0693 280.509 51.9494 281.457 50.9156C282.404 49.8817 283.524 49.1925 284.903 48.5895C286.281 48.0726 287.746 47.8141 289.469 47.8141C290.416 47.8141 291.278 47.9003 292.053 48.0726C292.915 48.2449 293.69 48.5033 294.465 48.8479C295.155 49.1925 295.758 49.2787 296.447 49.1925C297.05 49.1064 297.653 48.8479 297.998 48.2449C298.601 47.5556 298.859 46.6941 298.687 45.8326C298.515 44.9711 298.084 44.2819 297.222 43.9373C296.016 43.3342 294.81 42.9035 293.518 42.5589C292.226 42.2143 290.847 42.1281 289.469 42.1281C287.056 42.1281 284.73 42.5589 282.663 43.4204C280.595 44.2819 278.786 45.4019 277.235 46.9526C275.684 48.4172 274.565 50.2263 273.703 52.294C272.842 54.3616 272.411 56.6015 272.411 59.0138C272.411 61.8568 272.842 64.269 273.789 66.4228C274.737 68.5766 275.943 70.2996 277.58 71.7642C279.131 73.1426 280.94 74.2626 283.007 74.9518C285.075 75.641 287.229 76.0718 289.469 76.0718C290.416 76.0718 291.278 75.9856 292.139 75.8995C293.001 75.7271 293.862 75.5548 294.724 75.2964C295.585 75.0379 296.447 74.6933 297.222 74.2626C297.998 73.918 298.515 73.3149 298.687 72.4534C298.859 71.5919 298.601 70.8165 297.998 70.0412C297.825 69.1796 297.308 68.835 296.619 68.7489Z" fill="#43BEAE"/>
<path d="M323.929 49.6232C323.068 49.6232 322.465 49.8816 321.862 50.4847C321.345 51.0016 321.086 51.6908 321.086 52.5523C320.828 52.2939 320.483 52.0354 320.139 51.777C319.277 51.1739 318.329 50.657 317.209 50.2262C316.089 49.7955 314.797 49.6232 313.505 49.6232C311.437 49.6232 309.456 50.1401 307.733 51.26C306.01 52.38 304.631 53.9307 303.598 55.9122C302.564 57.8937 302.047 60.1336 302.047 62.7182C302.047 65.3027 302.564 67.5427 303.598 69.5241C304.631 71.5056 306.01 73.0563 307.819 74.1763C309.542 75.2963 311.523 75.8132 313.763 75.8132C314.97 75.8132 316.089 75.6409 317.123 75.2101C318.157 74.7794 319.019 74.3486 319.794 73.7456C320.397 73.3148 320.828 72.884 321.172 72.4533C321.172 73.2286 321.431 73.9179 321.948 74.4348C322.465 74.9517 323.154 75.2963 324.015 75.2963C324.791 75.2963 325.48 75.0378 326.083 74.4348C326.6 73.9179 326.858 73.2286 326.858 72.3671V52.4662C326.858 51.6047 326.6 50.9154 326.083 50.3985C325.394 49.8816 324.705 49.6232 323.929 49.6232ZM320.483 66.7673C319.88 67.9734 319.105 68.9211 318.071 69.6103C317.037 70.2995 315.831 70.6441 314.453 70.6441C313.074 70.6441 311.868 70.2995 310.834 69.6103C309.8 68.9211 309.025 67.9734 308.422 66.7673C307.819 65.5612 307.56 64.2689 307.56 62.7182C307.56 61.1675 307.819 59.8752 308.422 58.6691C309.025 57.4629 309.8 56.5153 310.834 55.8261C311.868 55.1369 313.074 54.7923 314.453 54.7923C315.831 54.7923 317.037 55.1369 318.071 55.8261C319.105 56.5153 319.88 57.4629 320.483 58.6691C321.086 59.8752 321.345 61.2536 321.345 62.7182C321.345 64.1828 321 65.5612 320.483 66.7673Z" fill="#43BEAE"/>
<path d="M348.396 50.3985C347.707 49.8816 346.932 49.6232 345.984 49.6232C345.209 49.6232 344.433 49.7093 343.658 49.8816C342.883 50.0539 342.107 50.3985 341.418 50.7431C340.729 51.1739 340.126 51.6047 339.523 52.2077C339.092 52.6385 338.833 53.0692 338.489 53.5861V52.8969C338.489 52.1216 338.23 51.4323 337.713 50.8293C337.197 50.3124 336.507 49.9678 335.646 49.9678C334.784 49.9678 334.181 50.2262 333.578 50.8293C333.061 51.3462 332.803 52.0354 332.803 52.8969V72.3671C332.803 73.2286 333.061 73.8317 333.578 74.4348C334.095 74.9517 334.784 75.2963 335.646 75.2963C336.421 75.2963 337.11 75.0378 337.713 74.4348C338.23 73.9179 338.489 73.2286 338.489 72.3671V61.1675C338.489 60.0475 338.661 59.0137 338.92 58.2383C339.178 57.3768 339.609 56.6876 340.126 56.1707C340.643 55.5676 341.16 55.223 341.763 54.8784C342.366 54.62 342.883 54.4476 343.486 54.4476C344.089 54.4476 344.692 54.5338 345.123 54.7923C345.639 55.0507 346.156 55.1369 346.759 55.1369C347.362 55.1369 347.966 54.8784 348.482 54.4476C348.999 54.0169 349.258 53.2415 349.258 52.2077C349.344 51.6047 349.085 50.9154 348.396 50.3985Z" fill="#43BEAE"/>
<path d="M374.156 63.9243C374.759 63.4936 375.017 62.8044 375.017 62.1151C375.017 60.3921 374.672 58.8414 374.069 57.2907C373.38 55.7399 372.519 54.4477 371.485 53.3277C370.365 52.2077 369.073 51.2601 367.694 50.5709C366.23 49.8817 364.765 49.537 363.128 49.537C361.061 49.537 359.079 50.054 357.184 51.1739C355.288 52.2077 353.824 53.7585 352.704 55.7399C351.584 57.7214 350.981 60.1337 350.981 62.9767C350.981 65.3889 351.498 67.5427 352.532 69.5242C353.565 71.4195 355.116 72.9702 357.098 74.0902C359.079 75.2102 361.405 75.7271 364.076 75.7271C365.627 75.7271 367.177 75.4686 368.642 74.9517C370.106 74.4348 371.313 73.8317 372.088 73.1425C372.949 72.4533 373.38 71.6779 373.38 70.8164C373.38 70.2134 373.122 69.6103 372.691 69.1796C372.26 68.7488 371.657 68.4904 370.968 68.4904C370.451 68.4904 369.934 68.6627 369.331 68.9211C368.987 69.0934 368.642 69.3519 368.211 69.6103C367.78 69.8688 367.263 70.1272 366.574 70.2995C365.885 70.4718 364.937 70.558 363.817 70.558C362.525 70.558 361.405 70.2134 360.285 69.6103C359.165 69.0073 358.218 68.0596 357.528 66.9396C357.098 66.2504 356.839 65.4751 356.667 64.6135H372.174C372.863 64.6997 373.553 64.4412 374.156 63.9243ZM358.304 56.4292C358.907 55.8261 359.596 55.3953 360.457 55.1369C361.233 54.8784 362.181 54.7923 363.128 54.7923C364.076 54.7923 365.024 54.9646 365.885 55.3953C366.747 55.8261 367.436 56.4292 368.039 57.1184C368.642 57.8076 368.9 58.6691 368.986 59.5306V59.8752H356.581C356.667 59.5306 356.753 59.0998 356.839 58.7552C357.184 57.8076 357.701 57.0322 358.304 56.4292Z" fill="#43BEAE"/>
<path d="M87.701 107H54.102C24.1213 107 -0.518015 82.6192 -0.00110656 52.5523C0.515802 23.5193 24.2936 0 53.4989 0C67.8862 0 81.2397 5.16908 91.2332 14.5596C100.107 22.9163 105.534 34.0298 106.74 46.1771C106.999 49.0201 104.759 51.5185 101.916 51.5185C99.4176 51.5185 97.35 49.7093 97.0915 47.211C96.1438 37.3897 91.7501 28.43 84.5996 21.624C76.4152 13.9565 65.3878 9.73511 53.4989 9.73511C29.9796 9.73511 10.6817 28.3438 9.734 51.6908C8.61403 76.6747 29.0319 97.3511 54.0158 97.3511H87.6149C90.2855 97.3511 92.4393 99.5048 92.4393 102.176C92.5255 104.846 90.3717 107 87.701 107Z" fill="#43BEAE"/>
<path d="M43.1618 53.5C43.1618 56.343 40.8357 58.7553 37.9066 58.7553C35.0636 58.7553 32.6514 56.4292 32.6514 53.5C32.6514 50.657 34.9775 48.3309 37.9066 48.3309C40.8357 48.3309 43.1618 50.657 43.1618 53.5Z" fill="#128EBF"/>
<path d="M58.4107 53.5C58.4107 56.343 56.0846 58.7553 53.1554 58.7553C50.3124 58.7553 47.9002 56.4292 47.9002 53.5C47.9002 50.657 50.2263 48.3309 53.1554 48.3309C56.0846 48.3309 58.4107 50.657 58.4107 53.5Z" fill="#128EBF"/>
<path d="M74.3487 53.5C74.3487 56.343 72.0226 58.7553 69.0934 58.7553C66.2504 58.7553 63.8382 56.4292 63.8382 53.5C63.8382 50.657 66.1643 48.3309 69.0934 48.3309C72.0226 48.3309 74.3487 50.657 74.3487 53.5Z" fill="#128EBF"/>
<path d="M122.593 76.244H107.258V60.9091C107.258 58.1523 105.019 55.8262 102.176 55.8262C99.4187 55.8262 97.0926 58.0661 97.0926 60.9091V76.244H81.7576C79.0008 76.244 76.6747 78.484 76.6747 81.327C76.6747 84.17 78.9147 86.4099 81.7576 86.4099H97.0926V101.745C97.0926 104.502 99.3325 106.828 102.176 106.828C104.932 106.828 107.258 104.588 107.258 101.745V86.4099H122.593C125.35 86.4099 127.676 84.17 127.676 81.327C127.676 78.484 125.35 76.244 122.593 76.244Z" fill="#72CEED"/>
</g>
<defs>
<clipPath id="clip0">
<rect width="375.017" height="107" fill="white"/>
</clipPath>
</defs>
</svg>
