<svg width="107" height="83" viewBox="0 0 107 83" fill="none" xmlns="http://www.w3.org/2000/svg">
<path d="M53.0001 82.3408C70.6732 82.3408 85.0001 68.0139 85.0001 50.3408C85.0001 32.6677 70.6732 18.3408 53.0001 18.3408C35.3269 18.3408 21 32.6677 21 50.3408C21 68.0139 35.3269 82.3408 53.0001 82.3408Z" fill="#61C7B5"/>
<path d="M70.2761 40.5508L49.4761 62.7609C48.076 64.3195 45.6761 64.3195 44.2761 62.7609L35.476 53.2145C34.2761 51.8506 34.2761 49.7076 35.676 48.3438C37.0761 47.1749 39.276 47.1749 40.6761 48.5386L46.8761 55.3575L65.076 36.0698C66.4761 34.706 68.6761 34.5112 70.0761 35.875C71.476 37.0439 71.476 39.3819 70.2761 40.5508Z" fill="white"/>
<ellipse cx="88.5" cy="35.388" rx="2.5" ry="2.43532" fill="#3E8CB9"/>
<path d="M47.6047 6.26635H43.3953V2.16581C43.3953 1.42863 42.7804 0.806641 42 0.806641C41.2432 0.806641 40.6047 1.40559 40.6047 2.16581V6.26635H36.3953C35.6385 6.26635 35 6.86531 35 7.62552C35 8.38573 35.6149 8.98469 36.3953 8.98469H40.6047V13.0852C40.6047 13.8224 41.2196 14.4444 42 14.4444C42.7568 14.4444 43.3953 13.8454 43.3953 13.0852V8.98469H47.6047C48.3615 8.98469 49 8.38573 49 7.62552C49 6.86531 48.3615 6.26635 47.6047 6.26635Z" fill="#72CEED"/>
<path d="M101.605 22.8264H97.3953V18.7259C97.3953 17.9887 96.7804 17.3667 96 17.3667C95.2432 17.3667 94.6047 17.9657 94.6047 18.7259V22.8264H90.3953C89.6385 22.8264 89 23.4254 89 24.1856C89 24.9458 89.6149 25.5447 90.3953 25.5447H94.6047V29.6453C94.6047 30.3825 95.2196 31.0045 96 31.0045C96.7568 31.0045 97.3953 30.4055 97.3953 29.6453V25.5447H101.605C102.361 25.5447 103 24.9458 103 24.1856C103 23.4254 102.361 22.8264 101.605 22.8264Z" fill="#72CEED"/>
<path d="M95.0034 67.0504H91.9966V64.1215C91.9966 63.5949 91.5574 63.1506 91 63.1506C90.4595 63.1506 90.0034 63.5785 90.0034 64.1215V67.0504H86.9966C86.4561 67.0504 86 67.4782 86 68.0213C86 68.5643 86.4392 68.9921 86.9966 68.9921H90.0034V71.921C90.0034 72.4476 90.4426 72.8919 91 72.8919C91.5405 72.8919 91.9966 72.4641 91.9966 71.921V68.9921H95.0034C95.5439 68.9921 96 68.5643 96 68.0213C96 67.4782 95.5439 67.0504 95.0034 67.0504Z" fill="#72CEED"/>
<path d="M97.3024 52.2428H95.1976V50.1925C95.1976 49.8239 94.8902 49.5129 94.5 49.5129C94.1216 49.5129 93.8024 49.8124 93.8024 50.1925V52.2428H91.6976C91.3193 52.2428 91 52.5423 91 52.9224C91 53.3025 91.3074 53.602 91.6976 53.602H93.8024V55.6522C93.8024 56.0208 94.1098 56.3318 94.5 56.3318C94.8784 56.3318 95.1976 56.0323 95.1976 55.6522V53.602H97.3024C97.6807 53.602 98 53.3025 98 52.9224C98 52.5423 97.6807 52.2428 97.3024 52.2428Z" fill="#72CEED"/>
<circle cx="105" cy="52" r="2" fill="#3E8CB9"/>
<circle cx="63" cy="10" r="2" fill="#3E8CB9"/>
<path d="M5.39527 29.6453H9.60473V25.5447C9.60473 24.8075 10.2196 24.1855 11 24.1855C11.7568 24.1855 12.3953 24.7845 12.3953 25.5447V29.6453H16.6047C17.3615 29.6453 18 30.2442 18 31.0044C18 31.7646 17.3851 32.3636 16.6047 32.3636H12.3953V36.4641C12.3953 37.2013 11.7804 37.8233 11 37.8233C10.2432 37.8233 9.60473 37.2243 9.60473 36.4641V32.3636H5.39527C4.63851 32.3636 4 31.7646 4 31.0044C4 30.2442 4.63851 29.6453 5.39527 29.6453Z" fill="#72CEED"/>
<path d="M70.0963 14.8376H73.4037V11.6158C73.4037 11.0366 73.8868 10.5479 74.5 10.5479C75.0946 10.5479 75.5963 11.0185 75.5963 11.6158V14.8376H78.9037C79.4983 14.8376 80 15.3082 80 15.9055C80 16.5028 79.5169 16.9734 78.9037 16.9734H75.5963V20.1953C75.5963 20.7745 75.1132 21.2632 74.5 21.2632C73.9054 21.2632 73.4037 20.7926 73.4037 20.1953V16.9734H70.0963C69.5017 16.9734 69 16.5028 69 15.9055C69 15.3082 69.5017 14.8376 70.0963 14.8376Z" fill="#72CEED"/>
<path d="M7.99662 55.361H11.0034V52.432C11.0034 51.9055 11.4426 51.4612 12 51.4612C12.5405 51.4612 12.9966 51.889 12.9966 52.432V55.361H16.0034C16.5439 55.361 17 55.7888 17 56.3318C17 56.8748 16.5608 57.3026 16.0034 57.3026H12.9966V60.2316C12.9966 60.7581 12.5574 61.2024 12 61.2024C11.4595 61.2024 11.0034 60.7746 11.0034 60.2316V57.3026H7.99662C7.45608 57.3026 7 56.8748 7 56.3318C7 55.7888 7.45608 55.361 7.99662 55.361Z" fill="#72CEED"/>
<path d="M14.598 69.387H16.402V67.6296C16.402 67.3137 16.6655 67.0471 17 67.0471C17.3243 67.0471 17.598 67.3038 17.598 67.6296V69.387H19.402C19.7264 69.387 20 69.6437 20 69.9695C20 70.2953 19.7365 70.552 19.402 70.552H17.598V72.3093C17.598 72.6253 17.3345 72.8918 17 72.8918C16.6757 72.8918 16.402 72.6352 16.402 72.3093V70.552H14.598C14.2736 70.552 14 70.2953 14 69.9695C14 69.6437 14.2736 69.387 14.598 69.387Z" fill="#72CEED"/>
<circle r="3.5" transform="matrix(-1 0 0 1 20.5 18.5)" fill="#3E8CB9"/>
<circle r="2" transform="matrix(-1 0 0 1 2 56)" fill="#3E8CB9"/>
</svg>
