<svg width="24" height="24" viewBox="0 0 24 24" fill="none" xmlns="http://www.w3.org/2000/svg">
<path d="M10.1152 13.1799C10.1152 13.8605 9.56353 14.4122 8.88294 14.4122C8.20239 14.4122 7.65071 13.8605 7.65071 13.1799C7.65071 12.4993 8.20239 11.9476 8.88294 11.9476C9.56353 11.9476 10.1152 12.4994 10.1152 13.1799ZM15.1171 11.9476C14.4365 11.9476 13.8848 12.4993 13.8848 13.18C13.8848 13.8605 14.4365 14.4122 15.1171 14.4122C15.7976 14.4122 16.3494 13.8605 16.3494 13.18C16.3493 12.4994 15.7976 11.9476 15.1171 11.9476ZM24 12.493V14.8349C24 16.0107 23.0469 16.9638 21.8711 16.9638H20.3262C18.7954 21.2142 14.8864 23.7815 12 23.7815C9.11357 23.7815 5.20459 21.2142 3.6738 16.9638H2.12894C0.953137 16.9638 0 16.0107 0 14.8349V12.493C0 11.6839 0.451412 10.9803 1.11608 10.6201C1.13839 7.29522 2.10745 4.69847 4.00051 2.9033C5.87824 1.12267 8.56965 0.219727 12 0.219727C15.4304 0.219727 18.1218 1.12267 19.9995 2.90326C21.8925 4.69843 22.8615 7.29522 22.8839 10.6201C23.5486 10.9803 24 11.6839 24 12.493ZM19.4941 13.1877C19.4941 12.6399 19.466 12.1252 19.4246 11.6264C18.4798 10.762 16.7645 10.1061 14.5998 9.86235C14.884 10.182 15.1296 10.6024 15.2785 11.1558C13.9525 10.1112 11.3498 10.3598 9.38114 8.02228C9.26827 7.89173 9.17067 7.76698 9.08628 7.65298C9.08529 7.65161 9.0842 7.65055 9.08322 7.64922L9.08345 7.6493C8.73322 7.17565 8.6138 6.89392 8.60714 7.20577C8.54937 9.89255 6.64502 11.9871 4.53035 12.2826C4.51698 12.5781 4.50604 12.8765 4.50604 13.1877C4.50604 14.3234 4.69149 15.3584 5.00678 16.2911C6.19463 17.724 8.15627 18.1285 9.89251 18.2358C10.2148 17.7231 10.938 17.3651 11.7802 17.3651C12.922 17.3651 13.8476 18.0221 13.8476 18.8327C13.8476 19.6432 12.922 20.3002 11.7802 20.3002C10.9019 20.3002 10.1534 19.9108 9.85384 19.3625C8.64039 19.2919 7.30643 19.0851 6.11753 18.5236C7.78945 20.988 10.3814 22.2912 12 22.2912C14.5435 22.2912 19.4941 19.078 19.4941 13.1877ZM21.6022 10.3641C21.4667 4.56208 18.1549 1.49714 12 1.49714C5.84506 1.49714 2.53337 4.56208 2.39784 10.3641H3.21694C3.51643 8.40851 4.14941 6.80024 5.11047 5.56361C6.64196 3.5931 8.95992 2.59392 12 2.59392C15.0401 2.59392 17.358 3.5931 18.8896 5.56361C19.8506 6.8002 20.4836 8.40851 20.7831 10.3641H21.6022Z" fill="#61C7B5"/>
</svg>
