<svg width="300" height="300" viewBox="0 0 300 300" fill="none" xmlns="http://www.w3.org/2000/svg">
<g clip-path="url(#clip0)">
<rect width="300" height="300" fill="#D6EDF6"/>
<path d="M149.858 52.5C128.846 52.5 111.757 69.5943 111.757 90.6058V110.347C111.757 131.36 128.846 148.455 149.858 148.455C170.871 148.455 187.959 131.36 187.959 110.347V90.6058C187.959 69.5943 170.871 52.5 149.858 52.5Z" fill="white"/>
<path d="M233.889 198.111C221.688 177.319 202.187 161.905 178.977 154.707C178.439 154.54 177.857 154.682 177.456 155.079C166.659 165.724 153.244 174.029 149.89 176.035C146.309 173.747 131.229 163.917 122.264 155.079C121.864 154.682 121.278 154.54 120.743 154.707C97.5302 161.907 78.0304 177.321 65.8344 198.112C65.5552 198.588 65.5552 199.179 65.8344 199.655C83.1534 229.167 115.35 247.5 149.86 247.5C184.371 247.5 216.57 229.167 233.889 199.655C234.169 199.178 234.169 198.587 233.889 198.111ZM201.681 209.477C201.681 210.318 200.881 210.96 200.042 210.96H189.722C188.881 210.96 187.964 211.683 187.964 212.525V223.197C187.964 224.036 187.515 224.677 186.674 224.677H177.406C176.565 224.677 175.773 224.036 175.773 223.197V212.525C175.77 211.684 175.196 210.96 174.355 210.96H163.591C162.75 210.96 162.054 210.316 162.054 209.477V200.288C162.054 199.448 162.75 198.769 163.591 198.769H174.355C175.196 198.769 175.77 198.083 175.77 197.24V186.556C175.77 185.715 176.562 185.052 177.403 185.052H186.571C187.41 185.052 187.963 185.715 187.963 186.556V197.271C187.963 198.114 188.777 198.768 189.619 198.768H200.042C200.881 198.768 201.681 199.479 201.681 200.32V209.477Z" fill="white"/>
</g>
<defs>
<clipPath id="clip0">
<rect width="300" height="300" fill="white"/>
</clipPath>
</defs>
</svg>
