<svg width="20" height="20" viewBox="0 0 20 20" fill="none" xmlns="http://www.w3.org/2000/svg">
<path d="M1.00017 12H3.00017V19C3.00017 19.553 3.44817 20 4.00017 20H16.0002C16.5532 20 17.0002 19.553 17.0002 19V12H19.0002C19.3952 12 19.7532 11.768 19.9132 11.407C20.0742 11.046 20.0082 10.624 19.7432 10.331L10.7432 0.331026C10.3642 -0.0909736 9.63617 -0.0909736 9.25717 0.331026L0.257171 10.331C-0.00682917 10.624 -0.0738293 11.046 0.0871707 11.407C0.247171 11.768 0.605171 12 1.00017 12ZM6.65317 9.64103C7.52817 8.78603 8.90817 8.78603 9.77817 9.64103L10.0022 9.86103L10.2252 9.64103C11.0962 8.78603 12.4762 8.78603 13.3512 9.64103C14.2222 10.501 14.2222 11.856 13.3512 12.711L10.0022 16L6.65317 12.711C5.78217 11.856 5.78217 10.501 6.65317 9.64103Z" fill="#61C7B5"/>
</svg>
