<svg width="24" height="24" viewBox="0 0 24 24" fill="none" xmlns="http://www.w3.org/2000/svg">
<path d="M11.9998 1C9.62923 1 7.70117 2.92859 7.70117 5.29911V7.52637C7.70117 9.89707 9.62923 11.8257 11.9998 11.8257C14.3705 11.8257 16.2983 9.89707 16.2983 7.52637V5.29911C16.2984 2.92859 14.3705 1 11.9998 1Z" fill="#8F90A6"/>
<path d="M21.4802 17.4279C20.1037 15.0822 17.9035 13.3431 15.285 12.5311C15.2243 12.5122 15.1586 12.5283 15.1134 12.573C13.8953 13.774 12.3817 14.711 12.0034 14.9373C11.5994 14.6791 9.89806 13.5702 8.8866 12.573C8.84154 12.5283 8.77537 12.5122 8.715 12.5311C6.09614 13.3433 3.89616 15.0823 2.52021 17.4281C2.48871 17.4817 2.48871 17.5484 2.52021 17.6021C4.47414 20.9317 8.10657 23 12 23C15.8936 23 19.5262 20.9317 21.4802 17.6021C21.5118 17.5483 21.5118 17.4816 21.4802 17.4279ZM17.8465 18.7102C17.8465 18.8051 17.7562 18.8776 17.6615 18.8776H16.4973C16.4024 18.8776 16.2989 18.9591 16.2989 19.0541V20.2581C16.2989 20.3528 16.2483 20.4251 16.1534 20.4251H15.1078C15.0129 20.4251 14.9235 20.3528 14.9235 20.2581V19.0541C14.9232 18.9592 14.8584 18.8776 14.7635 18.8776H13.5491C13.4543 18.8776 13.3758 18.8049 13.3758 18.7102V17.6736C13.3758 17.5787 13.4543 17.5021 13.5491 17.5021H14.7635C14.8584 17.5021 14.9232 17.4247 14.9232 17.3297V16.1243C14.9232 16.0294 15.0126 15.9546 15.1074 15.9546H16.1418C16.2365 15.9546 16.2988 16.0294 16.2988 16.1243V17.3332C16.2988 17.4282 16.3906 17.502 16.4857 17.502H17.6615C17.7562 17.502 17.8465 17.5822 17.8465 17.6771V18.7102Z" fill="#8F90A6"/>
</svg>
